<svg width="69" height="69" viewBox="0 0 69 69" fill="none" xmlns="http://www.w3.org/2000/svg">
<path d="M9.61644 62.1026L4.07959 0H64.9203L59.3776 62.0927L34.4628 69L9.61644 62.1026Z" fill="#264DE4"/>
<path d="M54.6324 58.1389L59.3691 5.07764H34.5V63.7204L54.6324 58.1389Z" fill="#2965F1"/>
<path d="M16.7731 28.1108L17.4557 35.7274H34.5002V28.1108H16.7731ZM16.0938 20.3113H34.5002V12.6946H15.4014L16.0938 20.3113ZM34.5002 47.892L34.4668 47.9009L25.9841 45.6104L25.4419 39.5357H17.7959L18.8631 51.495L34.4652 55.8263L34.5002 55.8165V47.892Z" fill="#EBEBEB"/>
<path d="M34.4736 28.1108V35.7274H43.8526L42.9686 45.6056L34.4736 47.8983V55.8225L50.0881 51.495L50.2027 50.2081L51.9924 30.156L52.1783 28.1108L53.5533 12.6946H34.4736V20.3113H45.2062L44.513 28.1108H34.4736Z" fill="white"/>
</svg>
