<svg width="69" height="69" viewBox="0 0 69 69" fill="none" xmlns="http://www.w3.org/2000/svg">
<path d="M9.56836 61.9922L4.04297 0H64.8223L59.2969 61.9922L34.3652 69" fill="#E34F26"/>
<path d="M34.5 63.6094L54.5801 58.084L59.2969 4.98633H34.5" fill="#EF652A"/>
<path d="M34.5 28.0312H24.3926L23.7188 20.2148H34.5V12.668H34.3652H15.3633L15.498 14.6895L17.3848 35.7129H34.5V28.0312ZM34.5 47.8418H34.3652L25.875 45.5508L25.3359 39.4863H21.293H17.7891L18.7324 51.4805L34.3652 55.793H34.5V47.8418Z" fill="#EBEBEB"/>
<path d="M34.3652 28.0312V35.7129H43.7988L42.8555 45.5508L34.3652 47.8418V55.793L49.998 51.4805L50.1328 50.1328L51.8848 30.0527L52.1543 28.0312H49.998H34.3652ZM34.3652 12.668V17.3848V20.2148H52.8281L52.9629 18.5977L53.3672 14.6895L53.502 12.668H34.3652Z" fill="white"/>
</svg>
