<svg width="69" height="69" viewBox="0 0 69 69" fill="none" xmlns="http://www.w3.org/2000/svg">
<g clip-path="url(#clip0_9283_2291)">
<path d="M69 0H0V69H69V0Z" fill="#F7DF1E"/>
<path d="M46.3504 53.9065C47.7402 56.1759 49.5485 57.8439 52.7466 57.8439C55.4332 57.8439 57.1494 56.5011 57.1494 54.6458C57.1494 52.4225 55.3861 51.635 52.429 50.3415L50.808 49.6461C46.1292 47.6527 43.0209 45.1556 43.0209 39.8765C43.0209 35.0137 46.7261 31.3118 52.5166 31.3118C56.6391 31.3118 59.6028 32.7465 61.7385 36.5032L56.6894 39.7451C55.5778 37.7518 54.3785 36.9665 52.5166 36.9665C50.6174 36.9665 49.4138 38.1712 49.4138 39.7451C49.4138 41.6902 50.6185 42.4777 53.4004 43.6825L55.0214 44.3769C60.5304 46.7393 63.6409 49.1477 63.6409 54.5626C63.6409 60.4002 59.0552 63.5983 52.8966 63.5983C46.875 63.5983 42.9847 60.7288 41.0812 56.9677L46.3504 53.9065ZM23.4457 54.4684C24.4642 56.2755 25.3908 57.8034 27.6185 57.8034C29.7488 57.8034 31.0926 56.9699 31.0926 53.7291V31.682H37.5764V53.8167C37.5764 60.5305 33.6402 63.5862 27.8945 63.5862C22.7031 63.5862 19.6967 60.8996 18.1677 57.6637L23.4457 54.4684Z" fill="black"/>
</g>
<defs>
<clipPath id="clip0_9283_2291">
<rect width="69" height="69" rx="7" fill="white"/>
</clipPath>
</defs>
</svg>
