<svg width="69" height="69" viewBox="0 0 69 69" fill="none" xmlns="http://www.w3.org/2000/svg">
<g clip-path="url(#clip0_9283_2285)">
<path d="M34.5 28.3504C33.6924 28.3504 32.8927 28.5094 32.1466 28.8185C31.4005 29.1275 30.7226 29.5805 30.1516 30.1515C29.5805 30.7226 29.1275 31.4005 28.8185 32.1466C28.5094 32.8927 28.3504 33.6924 28.3504 34.5C28.3504 35.3076 28.5094 36.1072 28.8185 36.8533C29.1275 37.5995 29.5805 38.2774 30.1516 38.8484C30.7226 39.4195 31.4005 39.8725 32.1466 40.1815C32.8927 40.4905 33.6924 40.6496 34.5 40.6496C35.3076 40.6496 36.1073 40.4905 36.8534 40.1815C37.5995 39.8725 38.2774 39.4195 38.8484 38.8484C39.4195 38.2774 39.8725 37.5995 40.1815 36.8533C40.4906 36.1072 40.6496 35.3076 40.6496 34.5C40.6496 33.6924 40.4906 32.8927 40.1815 32.1466C39.8725 31.4005 39.4195 30.7226 38.8484 30.1515C38.2774 29.5805 37.5995 29.1275 36.8534 28.8185C36.1073 28.5094 35.3076 28.3504 34.5 28.3504ZM17.273 46.7331L15.916 46.3881C5.80175 43.8322 0 39.4939 0 34.4885C0 29.4831 5.80175 25.1447 15.916 22.5889L17.273 22.2467L17.6554 23.5922C18.68 27.1219 19.9905 30.5622 21.574 33.879L21.8644 34.4914L21.574 35.1037C19.9879 38.4194 18.6772 41.8599 17.6554 45.3905L17.273 46.7331ZM15.2864 25.7312C7.59862 27.8904 2.88075 31.1937 2.88075 34.4885C2.88075 37.7804 7.59862 41.0837 15.2864 43.2457C16.2266 40.2555 17.3618 37.3302 18.6846 34.4885C17.3602 31.6474 16.225 28.722 15.2864 25.7312ZM51.727 46.7331L51.3446 45.3847C50.3211 41.8552 49.0095 38.4157 47.4231 35.1009L47.1327 34.4885L47.4231 33.8761C49.0089 30.56 50.3204 27.1196 51.3446 23.5894L51.727 22.2439L53.0869 22.586C63.1982 25.1419 69 29.4802 69 34.4885C69 39.4967 63.1982 43.8322 53.0869 46.3881L51.727 46.7331ZM50.3154 34.4885C51.6954 37.4756 52.8368 40.411 53.7136 43.2457C61.4043 41.0837 66.1192 37.7804 66.1192 34.4885C66.1192 31.1937 61.4014 27.8932 53.7136 25.7312C52.7747 28.7219 51.6395 31.6473 50.3154 34.4885ZM15.2662 25.7169L14.8839 24.3742C12.0405 14.352 12.903 7.17023 17.25 4.66323C21.5136 2.20223 28.359 5.10886 35.5321 12.4717L36.5096 13.4751L35.5321 14.4785C32.9833 17.1281 30.6545 19.9809 28.5689 23.0086L28.1807 23.5635L27.5051 23.621C23.8364 23.9102 20.1971 24.4967 16.6233 25.3747L15.2662 25.7169ZM20.7172 6.65561C19.9467 6.65561 19.2654 6.82236 18.6904 7.15298C15.8326 8.80036 15.3266 14.5274 17.296 22.2554C20.3597 21.5738 23.4646 21.0926 26.5909 20.815C28.3947 18.2501 30.3655 15.8069 32.4904 13.501C28.0054 9.13386 23.759 6.65561 20.7172 6.65561ZM48.2856 65.1964C48.2827 65.1964 48.2827 65.1964 48.2856 65.1964C44.1888 65.1964 38.9275 62.1115 33.4679 56.5052L32.4904 55.5019L33.4679 54.4985C36.016 51.848 38.3439 48.9942 40.4282 45.9655L40.8164 45.4106L41.4891 45.3531C45.1598 45.0655 48.801 44.4799 52.3768 43.6022L53.7338 43.2601L54.119 44.6056C56.9566 54.6221 56.097 61.8067 51.75 64.3109C50.6941 64.9079 49.4985 65.2135 48.2856 65.1964ZM36.5096 55.476C40.9946 59.8431 45.241 62.3214 48.2828 62.3214C49.0504 62.3214 49.7375 62.1546 50.3096 61.824C53.1674 60.1766 53.6762 54.4467 51.704 46.7187C48.6395 47.4013 45.5336 47.8824 42.4062 48.1591C40.6046 50.7257 38.6347 53.17 36.5096 55.476ZM53.7338 25.7169L52.3768 25.3747C48.8014 24.4942 45.1601 23.9076 41.4891 23.621L40.8164 23.5635L40.4282 23.0086C38.3449 19.98 36.017 17.127 33.4679 14.4785L32.4904 13.4751L33.4679 12.4717C40.6381 5.11173 47.4806 2.20511 51.75 4.66323C56.097 7.17023 56.9595 14.352 54.119 24.3714L53.7338 25.7169ZM42.4062 20.815C45.6895 21.114 48.8089 21.5999 51.704 22.2554C53.6762 14.5274 53.1674 8.80036 50.3096 7.15298C47.4691 5.51136 42.1303 8.02699 36.5096 13.501C38.6335 15.807 40.6033 18.2502 42.4062 20.815ZM20.7172 65.1964C19.5034 65.214 18.3067 64.9084 17.25 64.3109C12.903 61.8067 12.0405 54.625 14.8839 44.6056L15.2634 43.2601L16.6204 43.6022C19.941 44.4389 23.6038 45.0282 27.5023 45.3531L28.1779 45.4106L28.5631 45.9655C30.6491 48.9938 32.9779 51.8476 35.5264 54.4985L36.5039 55.5019L35.5264 56.5052C30.0696 62.1115 24.8084 65.1964 20.7172 65.1964ZM17.296 46.7187C15.3237 54.4467 15.8326 60.1766 18.6904 61.824C21.528 63.4426 26.864 60.9471 32.4904 55.476C30.3663 53.1684 28.3956 50.7242 26.5909 48.1591C23.4644 47.8826 20.3595 47.4015 17.296 46.7187ZM34.5 48.5242C32.1339 48.5242 29.7016 48.4207 27.2665 48.2195L26.5909 48.162L26.2028 47.6071C24.8254 45.628 23.5305 43.5926 22.3215 41.5064C21.1161 39.4184 19.9977 37.2814 18.9692 35.1009L18.6846 34.4885L18.9692 33.8761C19.9975 31.6955 21.1159 29.5585 22.3215 27.4706C23.5117 25.4121 24.8199 23.3594 26.2028 21.3699L26.5909 20.815L27.2665 20.7575C32.0812 20.3492 36.9217 20.3492 41.7364 20.7575L42.4091 20.815L42.7944 21.3699C45.552 25.3289 47.9726 29.5123 50.0308 33.8761L50.3211 34.4885L50.0308 35.1009C47.9775 39.4672 45.5567 43.651 42.7944 47.6071L42.4091 48.162L41.7364 48.2195C39.3013 48.4207 36.8661 48.5242 34.5 48.5242ZM28.1836 45.4077C32.4386 45.7269 36.5614 45.7269 40.8192 45.4077C43.1964 41.9326 45.3069 38.2824 47.1327 34.4885C45.3102 30.6923 43.1985 27.0418 40.8164 23.5692C36.6115 23.2501 32.3885 23.2501 28.1836 23.5692C25.8005 27.0411 23.6888 30.6917 21.8673 34.4885C23.6951 38.2819 25.8065 41.932 28.1836 45.4077Z" fill="#61DAFB"/>
</g>
<defs>
<clipPath id="clip0_9283_2285">
<rect width="69" height="69" fill="white"/>
</clipPath>
</defs>
</svg>
