<svg width="69" height="69" viewBox="0 0 69 69" fill="none" xmlns="http://www.w3.org/2000/svg">
<g clip-path="url(#clip0_9283_2299)">
<path d="M58.65 0H10.35C4.63385 0 0 4.63385 0 10.35V58.65C0 64.3661 4.63385 69 10.35 69H58.65C64.3661 69 69 64.3661 69 58.65V10.35C69 4.63385 64.3661 0 58.65 0Z" fill="#CC6699"/>
<path d="M34.7697 11.8593C21.8322 16.3066 13.4768 25.3359 14.2854 30.7265C15.0939 36.1171 23.1799 40.4296 26.8186 43.2597C22.1018 45.6855 16.1721 49.3241 16.3068 54.0409C16.5764 60.5097 23.5842 58.4882 26.549 56.6015C29.5139 54.7148 32.4787 49.4589 30.592 43.9335C34.7697 42.8554 38.4084 44.203 39.4865 45.0116C43.6643 47.9765 41.508 51.3456 40.0256 51.8847C38.5432 52.4238 39.4865 52.6933 40.4299 52.4238C41.3732 52.1542 43.3947 50.8066 43.3947 48.5155C43.3947 42.7206 37.1955 40.0253 29.5139 42.0468C25.0666 37.33 19.0022 35.1737 19.2717 30.0527C19.4064 28.1659 20.0803 23.3144 32.0744 17.2499C44.0686 11.1855 52.5588 13.6112 51.4807 19.1366C49.8635 27.4921 35.3088 33.1523 30.1877 28.3007C29.9182 27.7616 28.9748 27.3573 29.5139 28.8398C32.2092 35.578 54.0412 32.4784 54.9846 18.1933C55.2541 10.6464 44.3381 8.62492 34.7697 11.8593ZM23.1799 54.9843C19.8107 56.0624 19.9455 53.9062 20.0803 53.0976C20.4846 50.8066 22.3713 47.9765 28.0314 45.1464C29.6486 50.2675 26.01 54.1757 23.1799 54.9843Z" fill="white"/>
</g>
<defs>
<clipPath id="clip0_9283_2299">
<rect width="69" height="69" fill="white"/>
</clipPath>
</defs>
</svg>
