<svg width="69" height="43" viewBox="0 0 69 43" fill="none" xmlns="http://www.w3.org/2000/svg">
<mask id="mask0_9283_2308" style="mask-type:luminance" maskUnits="userSpaceOnUse" x="0" y="0" width="69" height="42">
<path d="M0 0H69V41.3345H0V0Z" fill="white"/>
</mask>
<g mask="url(#mask0_9283_2308)">
<path fill-rule="evenodd" clip-rule="evenodd" d="M34.5 0C25.3 0 19.55 4.59273 17.25 13.7782C20.7 9.18545 24.725 7.46318 29.325 8.61136C31.9496 9.26583 33.8253 11.168 35.9017 13.2717C39.284 16.6997 43.1991 20.6673 51.75 20.6673C60.95 20.6673 66.7 16.0745 69 6.88909C65.55 11.4818 61.525 13.2041 56.925 12.0559C54.3004 11.4014 52.4247 9.49929 50.3483 7.39557C46.966 3.96761 43.0509 0 34.5 0ZM17.25 20.6673C8.05 20.6673 2.3 25.26 0 34.4455C3.45 29.8527 7.475 28.1305 12.075 29.2786C14.6996 29.9344 16.5753 31.8353 18.6517 33.939C22.034 37.3669 25.9491 41.3345 34.5 41.3345C43.7 41.3345 49.45 36.7418 51.75 27.5564C48.3 32.1491 44.275 33.8714 39.675 32.7232C37.0504 32.0687 35.1747 30.1666 33.0983 28.0628C29.716 24.6349 25.8009 20.6673 17.25 20.6673Z" fill="#38BDF8"/>
</g>
</svg>
