<svg width="69" height="69" viewBox="0 0 69 69" fill="none" xmlns="http://www.w3.org/2000/svg">
<g clip-path="url(#clip0_9283_2033)">
<mask id="mask0_9283_2033" style="mask-type:luminance" maskUnits="userSpaceOnUse" x="0" y="0" width="69" height="69">
<path d="M69 0H0V69H69V0Z" fill="white"/>
</mask>
<g mask="url(#mask0_9283_2033)">
<path fill-rule="evenodd" clip-rule="evenodd" d="M17.25 34.5C26.7769 34.5 34.5 26.7769 34.5 17.25C34.5 26.7769 42.2232 34.5 51.75 34.5C42.2232 34.5 34.5 42.2232 34.5 51.75C34.5 42.2232 26.7769 34.5 17.25 34.5ZM17.25 34.5C7.7231 34.5 0 42.2232 0 51.75C0 61.2768 7.7231 69 17.25 69C26.7769 69 34.5 61.2768 34.5 51.75C34.5 61.2768 42.2232 69 51.75 69C61.2768 69 69 61.2768 69 51.75C69 42.2232 61.2768 34.5 51.75 34.5C61.2768 34.5 69 26.7769 69 17.25C69 7.7231 61.2768 0 51.75 0C42.2232 0 34.5 7.7231 34.5 17.25C34.5 7.7231 26.7769 0 17.25 0C7.7231 0 0 7.7231 0 17.25C0 26.7769 7.7231 34.5 17.25 34.5Z" fill="#FE4342"/>
</g>
</g>
<defs>
<clipPath id="clip0_9283_2033">
<rect width="69" height="69" fill="white"/>
</clipPath>
</defs>
</svg>
