<svg width="69" height="69" viewBox="0 0 69 69" fill="none" xmlns="http://www.w3.org/2000/svg">
<g clip-path="url(#clip0_9283_2040)">
<mask id="mask0_9283_2040" style="mask-type:luminance" maskUnits="userSpaceOnUse" x="0" y="0" width="69" height="69">
<path d="M69 0H0V69H69V0Z" fill="white"/>
</mask>
<g mask="url(#mask0_9283_2040)">
<path fill-rule="evenodd" clip-rule="evenodd" d="M50.498 11.9331C50.932 10.8869 51.1538 9.76509 51.1514 8.63252C51.1521 6.92867 50.6481 5.2628 49.7028 3.8452C48.7575 2.42759 47.4137 1.32182 45.8405 0.667472C44.2673 0.0131283 42.5354 -0.160451 40.8635 0.168647C39.192 0.497745 37.655 1.31477 36.4472 2.51656L34.5014 4.32875L32.5687 2.52251C30.9502 0.905984 28.7559 -0.00139239 26.4683 1.60381e-06C24.1808 0.0013956 21.9876 0.911445 20.371 2.52995C18.7545 4.14845 17.8471 6.34282 17.8485 8.63035C17.8499 10.9178 18.76 13.1111 20.3785 14.7276L33.654 28.1994C33.7646 28.3118 33.8965 28.401 34.042 28.4619C34.1875 28.5228 34.3436 28.5542 34.5014 28.5542C34.659 28.5542 34.8153 28.5228 34.9606 28.4619C35.1062 28.401 35.238 28.3118 35.3487 28.1994L48.6243 14.7276C49.4275 13.9292 50.0643 12.9793 50.498 11.9331ZM18.5019 57.0668C18.0681 58.1132 17.846 59.2348 17.8485 60.3674C17.8478 62.0714 18.3519 63.7374 19.2971 65.155C20.2424 66.5726 21.5864 67.6783 23.1596 68.3324C24.7328 68.9869 26.4646 69.1604 28.1363 68.8313C29.8081 68.5022 31.3449 67.6852 32.5527 66.4836L34.4987 64.6713L36.4313 66.4774C38.0497 68.094 40.2443 69.0014 42.5316 69C44.8193 68.9986 47.0125 68.0885 48.6291 66.4701C50.2455 64.8517 51.1528 62.6572 51.1514 60.3698C51.15 58.0821 50.2399 55.889 48.6215 54.2723L35.3459 40.8007C35.2355 40.6883 35.1034 40.5989 34.9578 40.5382C34.8126 40.4771 34.6563 40.4457 34.4987 40.4457C34.341 40.4457 34.1848 40.4771 34.0393 40.5382C33.8939 40.5989 33.7619 40.6883 33.6513 40.8007L20.3758 54.2723C19.5726 55.071 18.9356 56.0208 18.5019 57.0668ZM60.3674 51.1518C59.2348 51.1542 58.1132 50.932 57.0668 50.4983C56.0208 50.0647 55.071 49.4275 54.2723 48.6243L40.8007 35.349C40.6883 35.2383 40.5989 35.1062 40.5382 34.9609C40.4771 34.8153 40.4457 34.6594 40.4457 34.5014C40.4457 34.3438 40.4771 34.1877 40.5382 34.0422C40.5989 33.8967 40.6883 33.7648 40.8007 33.6542L54.2723 20.3787C55.889 18.7602 58.0821 17.8501 60.3698 17.8487C62.6572 17.8473 64.8517 18.7547 66.4701 20.3712C68.0885 21.9877 68.9986 24.181 69 26.4685C69.0014 28.7561 68.094 30.9504 66.4774 32.5689L64.6713 34.5014L66.4836 36.4475C67.6852 37.6554 68.5022 39.192 68.8313 40.8639C69.1604 42.5357 68.9869 44.2673 68.3324 45.8405C67.6783 47.4137 66.5726 48.7578 65.155 49.7031C63.7374 50.6484 62.0714 51.1525 60.3674 51.1518ZM11.9331 18.5017C10.8869 18.0679 9.76509 17.8458 8.63252 17.8483C6.92867 17.8476 5.26277 18.3517 3.8452 19.2969C2.42758 20.2421 1.32181 21.5862 0.667472 23.1594C0.0131281 24.7326 -0.160451 26.4644 0.168647 28.1361C0.497745 29.8079 1.31476 31.3447 2.51656 32.5525L4.32875 34.4985L2.52251 36.431C0.90598 38.0497 -0.00139242 40.2439 1.60388e-06 42.5316C0.00139563 44.819 0.911442 47.0121 2.52994 48.6288C4.14845 50.2455 6.34282 51.1528 8.63035 51.1514C10.9178 51.15 13.1111 50.2399 14.7276 48.6212L28.1994 35.3459C28.3117 35.2352 28.401 35.1034 28.4619 34.9578C28.5228 34.8122 28.5542 34.6563 28.5542 34.4984C28.5542 34.3407 28.5228 34.1846 28.4619 34.0392C28.401 33.8937 28.3117 33.7618 28.1994 33.6511L14.7276 20.3756C13.9292 19.5724 12.9793 18.9354 11.9331 18.5017Z" fill="#E86AE1"/>
</g>
</g>
<defs>
<clipPath id="clip0_9283_2040">
<rect width="69" height="69" fill="white"/>
</clipPath>
</defs>
</svg>
