<svg width="68" height="71" viewBox="0 0 68 71" fill="none" xmlns="http://www.w3.org/2000/svg">
<g clip-path="url(#clip0_9283_2019)">
<mask id="mask0_9283_2019" style="mask-type:luminance" maskUnits="userSpaceOnUse" x="0" y="0" width="68" height="71">
<path d="M68 0H0V71H68V0Z" fill="white"/>
</mask>
<g mask="url(#mask0_9283_2019)">
<path d="M33.8905 37.3769C33.8905 -29.0008 49.3368 7.56225 33.4402 36.3087C49.3334 7.56225 87.411 3.24079 32.331 36.4365C87.3977 3.2477 64.7796 35.4962 32.9932 35.4962C64.7796 35.4962 87.4011 67.7549 32.331 34.5558C87.3977 67.7447 49.3368 63.4335 33.4402 34.6837C49.3334 63.4335 33.8905 100.024 33.8905 33.6189C33.8905 99.9967 18.4409 63.4335 34.3377 34.6837C18.4443 63.4335 -19.6333 67.7549 35.4467 34.5558C-19.6201 67.7447 2.99801 35.4962 34.7844 35.4962C2.99801 35.4962 -19.6234 3.24079 35.4467 36.4365C-19.6201 3.2477 18.4409 7.56225 34.3377 36.3087C18.4409 7.56225 33.8905 -29.0181 33.8905 37.3769Z" fill="#FE4342"/>
</g>
</g>
<defs>
<clipPath id="clip0_9283_2019">
<rect width="68" height="71" fill="white"/>
</clipPath>
</defs>
</svg>
