<svg width="69" height="70" viewBox="0 0 69 70" fill="none" xmlns="http://www.w3.org/2000/svg">
<g clip-path="url(#clip0_9283_1976)">
<mask id="mask0_9283_1976" style="mask-type:luminance" maskUnits="userSpaceOnUse" x="0" y="0" width="69" height="70">
<path d="M69 0H0V70H69V0Z" fill="white"/>
</mask>
<g mask="url(#mask0_9283_1976)">
<path d="M31.0265 2.14502C32.4841 -0.715007 36.5158 -0.715007 37.9735 2.14502L47.2557 20.3575C47.6276 21.0874 48.2137 21.682 48.9334 22.0594L66.8855 31.4761C69.7048 32.9549 69.7048 37.0451 66.8855 38.5238L48.9334 47.9406C48.2137 48.3179 47.6276 48.9125 47.2557 49.6426L37.9735 67.8549C36.5158 70.715 32.4841 70.715 31.0265 67.8549L21.7442 49.6426C21.3723 48.9125 20.7861 48.3179 20.0667 47.9406L2.11438 38.5238C-0.704793 37.0451 -0.704793 32.9549 2.11438 31.4761L20.0667 22.0594C20.7861 21.682 21.3723 21.0874 21.7442 20.3575L31.0265 2.14502Z" fill="#E86AE1"/>
</g>
</g>
<defs>
<clipPath id="clip0_9283_1976">
<rect width="69" height="70" fill="white"/>
</clipPath>
</defs>
</svg>
