<svg width="69" height="69" viewBox="0 0 69 69" fill="none" xmlns="http://www.w3.org/2000/svg">
<g clip-path="url(#clip0_9283_1961)">
<mask id="mask0_9283_1961" style="mask-type:luminance" maskUnits="userSpaceOnUse" x="0" y="0" width="69" height="69">
<path d="M69 0H0V69H69V0Z" fill="white"/>
</mask>
<g mask="url(#mask0_9283_1961)">
<path fill-rule="evenodd" clip-rule="evenodd" d="M36.9643 1.38C36.9643 0.617847 36.3464 0 35.5843 0H33.4157C32.6536 0 32.0357 0.617847 32.0357 1.38V14.7228C32.0357 16.2396 29.9444 16.6461 29.3762 15.2398L24.3779 2.86852C24.0924 2.16187 23.2881 1.82046 22.5814 2.10597L20.5707 2.91833C19.8641 3.20384 19.5227 4.00814 19.8082 4.7148L25.1369 17.9037C25.7 19.2976 23.9446 20.4595 22.8815 19.3965L12.8231 9.33811C12.2842 8.79919 11.4104 8.79919 10.8715 9.33811L9.33811 10.8715C8.79919 11.4104 8.79919 12.2842 9.33811 12.8231L18.3705 21.8555C19.4488 22.9338 18.2396 24.7065 16.8422 24.0959L5.13688 18.9818C4.43846 18.6766 3.62495 18.9954 3.3198 19.6938L2.45158 21.681C2.14645 22.3794 2.46525 23.1929 3.16365 23.4981L16.6517 29.3911C18.022 29.9898 17.5946 32.0357 16.0992 32.0357H1.38C0.617847 32.0357 0 32.6536 0 33.4157V35.5843C0 36.3464 0.617847 36.9643 1.38 36.9643H16.0991C17.5945 36.9643 18.0219 39.0102 16.6517 39.6088L3.16367 45.502C2.46527 45.807 2.14646 46.6205 2.4516 47.3188L3.31982 49.306C3.62495 50.0046 4.43849 50.3234 5.13688 50.0181L16.8422 44.9042C18.2396 44.2935 19.4488 46.0661 18.3705 47.1446L9.33811 56.1767C8.79919 56.7159 8.79919 57.5895 9.33811 58.1284L10.8715 59.6619C11.4104 60.2008 12.2842 60.2008 12.8231 59.6619L22.8815 49.6034C23.9446 48.5405 25.7 49.7024 25.1369 51.0962L19.8082 64.2852C19.5227 64.9918 19.8641 65.796 20.5707 66.0816L22.5814 66.8941C23.2881 67.1794 24.0924 66.8382 24.3779 66.1313L29.3762 53.7603C29.9444 52.3537 32.0357 52.7605 32.0357 54.2771V67.62C32.0357 68.3821 32.6536 69 33.4157 69H35.5843C36.3464 69 36.9643 68.3821 36.9643 67.62V54.2771C36.9643 52.7605 39.0557 52.3537 39.6239 53.7603L44.622 66.1313C44.9076 66.8382 45.7118 67.1794 46.4187 66.8941L48.4294 66.0816C49.1359 65.796 49.4775 64.9918 49.1918 64.2852L43.8633 51.0962C43.2999 49.7024 45.0553 48.5405 46.1186 49.6034L56.1767 59.6619C56.7159 60.2008 57.5895 60.2008 58.1284 59.6619L59.6619 58.1284C60.2008 57.5895 60.2008 56.7159 59.6619 56.1767L50.6294 47.1446C49.5513 46.0661 50.7605 44.2935 52.1578 44.9042L63.8629 50.0181C64.5616 50.3234 65.3751 50.0046 65.6801 49.306L66.5484 47.3188C66.8534 46.6205 66.5346 45.807 65.8363 45.502L52.3482 39.6088C50.9782 39.0102 51.4053 36.9643 52.9009 36.9643H67.62C68.3821 36.9643 69 36.3464 69 35.5843V33.4157C69 32.6536 68.3821 32.0357 67.62 32.0357H52.9009C51.4053 32.0357 50.9779 29.9898 52.3482 29.3911L65.8363 23.4981C66.5346 23.1929 66.8534 22.3794 66.5484 21.681L65.6801 19.6938C65.3751 18.9954 64.5616 18.6766 63.8629 18.9818L52.1578 24.0959C50.7605 24.7064 49.5513 22.9338 50.6294 21.8555L59.6619 12.8231C60.2008 12.2842 60.2008 11.4104 59.6619 10.8715L58.1284 9.33808C57.5895 8.79916 56.7159 8.79916 56.1767 9.33808L46.1186 19.3965C45.0553 20.4595 43.2999 19.2976 43.8633 17.9037L49.1918 4.7148C49.4775 4.00814 49.1359 3.20384 48.4294 2.91833L46.4187 2.10597C45.7118 1.82046 44.9076 2.16187 44.622 2.86852L39.6239 15.2398C39.0557 16.6461 36.9643 16.2396 36.9643 14.7228V1.38Z" fill="#E86AE1"/>
</g>
</g>
<defs>
<clipPath id="clip0_9283_1961">
<rect width="69" height="69" fill="white"/>
</clipPath>
</defs>
</svg>
