<svg width="69" height="69" viewBox="0 0 69 69" fill="none" xmlns="http://www.w3.org/2000/svg">
<g clip-path="url(#clip0_9286_2426)">
<path d="M0.535889 0.535889V68.4642H68.4642V0.535889H0.535889ZM39.3053 23.0229C39.3053 23.0229 41.455 39.2249 41.455 39.9726L44.5735 30.2048H44.552C45.9276 26.5068 48.6375 23.0229 53.798 23.0229L46.4867 40.6772C45.852 42.6777 44.593 44.4253 42.8921 45.6668C41.1912 46.9083 39.1368 47.5791 37.0266 47.582C37.0266 47.582 34.8758 32.4058 34.8758 32.0635L31.6511 40.4001C30.2102 44.0981 27.4157 47.582 22.2553 47.582L18.2123 23.045C20.1798 23.094 22.0608 23.8585 23.4993 25.1937C24.9377 26.529 25.8336 28.3422 26.0174 30.29C26.0174 30.29 26.5554 39.2886 26.5554 39.9936L30.3611 30.2043C31.7374 26.5063 34.3599 23.0229 39.3053 23.0229Z" fill="#4353FF"/>
</g>
<defs>
<clipPath id="clip0_9286_2426">
<rect width="69" height="69" rx="8" fill="white"/>
</clipPath>
</defs>
</svg>
