<svg width="25" height="25" viewBox="0 0 25 25" fill="none" xmlns="http://www.w3.org/2000/svg">
<rect width="25" height="25" rx="5" fill="#F9F5F2"/>
<g clip-path="url(#clip0_9326_286)">
<path d="M11.1876 14.8377C11.133 14.6431 11.0708 14.4431 11.0012 14.2377C10.9366 14.0323 10.872 13.8269 10.8074 13.6215H8.79421C8.72959 13.8269 8.66249 14.0323 8.5929 14.2377C8.52828 14.4431 8.46863 14.6431 8.41395 14.8377H7.20605C7.39991 14.2323 7.58383 13.6728 7.75781 13.1593C7.93179 12.6458 8.10079 12.162 8.26483 11.7079C8.43383 11.2539 8.59787 10.8242 8.75693 10.4188C8.92097 10.0079 9.08997 9.60794 9.26395 9.21875H10.3749C10.5439 9.60794 10.7104 10.0079 10.8745 10.4188C11.0385 10.8242 11.2025 11.2539 11.3666 11.7079C11.5356 12.162 11.7071 12.6458 11.8811 13.1593C12.055 13.6728 12.2389 14.2323 12.4328 14.8377H11.1876ZM9.79334 10.4917C9.76848 10.5728 9.7312 10.6836 9.68149 10.8242C9.63179 10.9647 9.57462 11.1269 9.51 11.3106C9.44538 11.4944 9.37331 11.6971 9.29377 11.9188C9.21921 12.1404 9.14217 12.3728 9.06263 12.616H10.5315C10.452 12.3728 10.3749 12.1404 10.3004 11.9188C10.2258 11.6971 10.1537 11.4944 10.0841 11.3106C10.0195 11.1269 9.96234 10.9647 9.91263 10.8242C9.86293 10.6836 9.82316 10.5728 9.79334 10.4917Z" fill="#282825"/>
<path d="M15.5049 13.9133V14.9998H12.0527V9.38086H13.2159V13.9133H15.5049Z" fill="#282825"/>
<path d="M15.9248 14.9164C15.0847 14.9164 14.4435 14.6623 14.0011 14.1542C13.5637 13.6461 13.345 12.9245 13.345 11.9893C13.345 11.5245 13.4121 11.111 13.5463 10.7488C13.6805 10.3812 13.8644 10.0731 14.098 9.82447C14.3317 9.57042 14.61 9.37852 14.9331 9.24879C15.2562 9.11906 15.6067 9.0542 15.9844 9.0542C16.2032 9.0542 16.402 9.07312 16.5809 9.11096C16.7599 9.14339 16.9165 9.18393 17.0507 9.23258C17.1849 9.27582 17.2967 9.32177 17.3862 9.37042C17.4757 9.41906 17.5403 9.4569 17.5801 9.48393L17.2445 10.5056C17.0855 10.4137 16.8991 10.3353 16.6853 10.2704C16.4765 10.2056 16.238 10.1731 15.9695 10.1731C15.7906 10.1731 15.6141 10.2056 15.4401 10.2704C15.2711 10.3353 15.1195 10.4407 14.9853 10.5866C14.8561 10.7272 14.7517 10.911 14.6722 11.138C14.5926 11.365 14.5529 11.6407 14.5529 11.965C14.5529 12.2245 14.5777 12.4677 14.6274 12.6947C14.6821 12.9164 14.7666 13.1083 14.8809 13.2704C15.0002 13.4326 15.1543 13.5623 15.3432 13.6596C15.5321 13.7515 15.7608 13.7974 16.0292 13.7974C16.1982 13.7974 16.3498 13.7866 16.484 13.765C16.6182 13.7434 16.7375 13.7191 16.8419 13.692C16.9463 13.6596 17.0382 13.6245 17.1178 13.5866C17.1973 13.5488 17.2694 13.5137 17.334 13.4812L17.6546 14.4947C17.4906 14.6028 17.2594 14.7001 16.9612 14.7866C16.663 14.8731 16.3175 14.9164 15.9248 14.9164Z" fill="#282825"/>
<path d="M10.8845 13.8647C12.6281 13.7626 13.9167 14.162 15.2588 13.6086C15.5819 13.7566 15.9528 13.8056 16.3275 13.7836C16.6489 13.7648 17.0234 13.6485 17.3465 13.4863L17.6448 14.5134L17.1228 14.7296L16.8494 14.8107L16.7003 14.8377L16.5512 14.8647L16.3027 14.9188L16.0293 14.9458L15.7559 14.9728L15.5073 14.9998H11.2325L10.8845 13.8647Z" fill="#282825"/>
<path d="M4.03735 12.0218L7.24349 10.5542L7.53428 11.5353L5.19306 12.5245L7.53428 13.5947L7.24349 14.4326L4.03735 13.0272V12.0218Z" fill="#5F96F7"/>
<path d="M20.9676 13.0407L17.7615 14.5082L17.4707 13.5272L19.8119 12.538L17.4707 10.5677L17.7615 9.59473L20.9676 12.0353V13.0407Z" fill="#5F96F7"/>
</g>
<defs>
<clipPath id="clip0_9326_286">
<rect x="4" y="9" width="17" height="6" rx="3" fill="white"/>
</clipPath>
</defs>
</svg>
