<svg width="342" height="111" viewBox="0 0 342 111" fill="none" xmlns="http://www.w3.org/2000/svg">
<path d="M144.6 108C143.5 104.4 142.25 100.7 140.85 96.9C139.55 93.1 138.25 89.3 136.95 85.5H96.45C95.15 89.3 93.8 93.1 92.4 96.9C91.1 100.7 89.9 104.4 88.8 108H64.5C68.4 96.8 72.1 86.45 75.6 76.95C79.1 67.45 82.5 58.5 85.8 50.1C89.2 41.7 92.5 33.75 95.7 26.25C99 18.65 102.4 11.25 105.9 4.05H128.25C131.65 11.25 135 18.65 138.3 26.25C141.6 33.75 144.9 41.7 148.2 50.1C151.6 58.5 155.05 67.45 158.55 76.95C162.05 86.45 165.75 96.8 169.65 108H144.6ZM116.55 27.6C116.05 29.1 115.3 31.15 114.3 33.75C113.3 36.35 112.15 39.35 110.85 42.75C109.55 46.15 108.1 49.9 106.5 54C105 58.1 103.45 62.4 101.85 66.9H131.4C129.8 62.4 128.25 58.1 126.75 54C125.25 49.9 123.8 46.15 122.4 42.75C121.1 39.35 119.95 36.35 118.95 33.75C117.95 31.15 117.15 29.1 116.55 27.6Z" fill="#282825"/>
<path d="M231.45 90.9V111H162V7.05H185.4V90.9H231.45Z" fill="#282825"/>
<path d="M239.9 109.45C223 109.45 210.1 104.75 201.2 95.35C192.4 85.95 188 72.6 188 55.3C188 46.7 189.35 39.05 192.05 32.35C194.75 25.55 198.45 19.85 203.15 15.25C207.85 10.55 213.45 7 219.95 4.6C226.45 2.2 233.5 1 241.1 1C245.5 1 249.5 1.35 253.1 2.05C256.7 2.65 259.85 3.4 262.55 4.3C265.25 5.1 267.5 5.95 269.3 6.85001C271.1 7.75001 272.4 8.45001 273.2 8.95001L266.45 27.85C263.25 26.15 259.5 24.7 255.2 23.5C251 22.3 246.2 21.7 240.8 21.7C237.2 21.7 233.65 22.3 230.15 23.5C226.75 24.7 223.7 26.65 221 29.35C218.4 31.95 216.3 35.35 214.7 39.55C213.1 43.75 212.3 48.85 212.3 54.85C212.3 59.65 212.8 64.15 213.8 68.35C214.9 72.45 216.6 76 218.9 79C221.3 82 224.4 84.4 228.2 86.2C232 87.9 236.6 88.75 242 88.75C245.4 88.75 248.45 88.55 251.15 88.15C253.85 87.75 256.25 87.3 258.35 86.8C260.45 86.2 262.3 85.55 263.9 84.85C265.5 84.15 266.95 83.5 268.25 82.9L274.7 101.65C271.4 103.65 266.75 105.45 260.75 107.05C254.75 108.65 247.8 109.45 239.9 109.45Z" fill="#282825"/>
<path d="M138.5 90C173.576 88.1113 199.5 95.5 226.5 85.2615C233 88 240.461 88.906 248 88.5C254.466 88.1519 262 86 268.5 83L274.5 102L264 106L258.5 107.5L255.5 108L252.5 108.5L247.5 109.5L242 110L236.5 110.5L231.5 111H145.5L138.5 90Z" fill="#282825"/>
<path d="M0.75 55.9L65.25 28.75L71.1 46.9L24 65.2L71.1 85L65.25 100.5L0.75 74.5V55.9Z" fill="#5F96F7"/>
<path d="M341.35 74.75L276.85 101.9L271 83.75L318.1 65.45L271 29L276.85 11L341.35 56.15V74.75Z" fill="#5F96F7"/>
</svg>
