<svg width="69" height="69" viewBox="0 0 69 69" fill="none" xmlns="http://www.w3.org/2000/svg">
<path d="M65.9484 31.5891L37.4102 3.05227C35.767 1.40836 33.1016 1.40836 31.457 3.05227L25.5315 8.97915L33.0482 16.4959C34.7953 15.9055 36.7984 16.3017 38.1905 17.6945C39.5912 19.0958 39.9838 21.116 39.3785 22.8695L46.6242 30.1145C48.3776 29.5099 50.3993 29.9011 51.7992 31.3031C53.7554 33.2593 53.7554 36.4291 51.7992 38.3867C49.8416 40.3436 46.6718 40.3436 44.7135 38.3867C43.2425 36.9142 42.8783 34.7517 43.6245 32.9392L36.8667 26.1822V43.9636C37.3433 44.1997 37.7936 44.5142 38.1905 44.9111C40.1467 46.8673 40.1467 50.037 38.1905 51.9953C36.2343 53.9508 33.0625 53.9508 31.1077 51.9953C29.1515 50.0363 29.1515 46.8666 31.1077 44.9111C31.5914 44.4281 32.1512 44.0625 32.7488 43.8177V25.8706C32.1512 25.6259 31.5928 25.2639 31.1077 24.7773C29.626 23.2963 29.2696 21.121 30.0293 19.3014L22.6193 11.89L3.05031 31.4568C1.40641 33.1021 1.40641 35.7675 3.05031 37.4114L31.59 65.949C33.2332 67.5929 35.8979 67.5929 37.5432 65.949L65.9484 37.5437C67.5923 35.8998 67.5923 33.233 65.9484 31.5891Z" fill="#F05133"/>
</svg>
