<svg width="69" height="69" viewBox="0 0 69 69" fill="none" xmlns="http://www.w3.org/2000/svg">
<g clip-path="url(#clip0_9286_2476)">
<mask id="mask0_9286_2476" style="mask-type:luminance" maskUnits="userSpaceOnUse" x="0" y="0" width="69" height="69">
<path d="M69 0H0V69H69V0Z" fill="white"/>
</mask>
<g mask="url(#mask0_9286_2476)">
<path d="M34.3456 6.5235C34.3456 -12.1183 45.9942 14.307 41.3429 22.3787C46.0025 14.307 74.7162 11.1829 58.5688 20.5059C74.7162 11.1829 57.6552 34.5007 48.3361 34.5007C57.6552 34.5007 74.7162 57.8058 58.5688 48.4953C74.7162 57.8182 46.0025 54.6942 41.3429 46.6226C46.0025 54.6942 34.3456 81.1195 34.3456 62.4778C34.3456 81.1195 22.693 54.6942 27.3483 46.6226C22.6888 54.6942 -6.025 57.8182 10.1224 48.4953C-6.025 57.8182 11.0362 34.5007 20.3591 34.5007C11.0362 34.5007 -6.025 11.1953 10.1224 20.5059C-6.025 11.1829 22.6888 14.307 27.3483 22.3787C22.693 14.2988 34.3456 -12.1183 34.3456 6.5235Z" fill="#5F96F7"/>
</g>
</g>
<defs>
<clipPath id="clip0_9286_2476">
<rect width="69" height="69" fill="white"/>
</clipPath>
</defs>
</svg>
