<svg width="69" height="69" viewBox="0 0 69 69" fill="none" xmlns="http://www.w3.org/2000/svg">
<path fill-rule="evenodd" clip-rule="evenodd" d="M63.8172 27.6162C60.707 30.9435 55.6096 33.4754 50.4291 34.5C55.6096 35.5247 60.707 38.0566 63.8168 41.3838L67.3475 45.1612L62.2709 46.1417C57.799 47.0052 52.1869 46.0575 47.3934 43.8412C50.9821 47.7156 53.6179 52.7598 54.1785 57.2797L54.8147 62.4108L50.1314 60.2204C46.0058 58.2909 42.0228 54.225 39.4474 49.6144C40.0736 54.8581 39.2411 60.4885 37.0376 64.4746L34.5363 69L32.035 64.4746C29.8317 60.4885 28.999 54.8581 29.6255 49.6144C27.05 54.225 23.067 58.2905 18.9414 60.2204L14.2579 62.4108L14.8942 57.2797C15.4546 52.7598 18.0904 47.7156 21.6794 43.8412C16.8858 46.0575 11.2737 47.0056 6.80188 46.1417L1.7251 45.1612L5.25597 41.3838C8.36611 38.0563 13.4636 35.5247 18.6442 34.5C13.4634 33.4753 8.36611 30.9435 5.25597 27.6162L1.7251 23.8388L6.80188 22.8582C11.2737 21.9946 16.886 22.9425 21.6794 25.1587C18.0904 21.2846 15.4546 16.24 14.8942 11.7202L14.2579 6.58884L18.9416 8.7797C23.0671 10.7093 27.0502 14.775 29.6257 19.3855C28.9992 14.1418 29.8318 8.51139 32.0352 4.52526L34.5367 0L37.0379 4.52526C39.2414 8.51139 40.0739 14.1418 39.4474 19.3855C42.0232 14.775 46.0062 10.7095 50.1317 8.7797L54.8154 6.58884L54.1789 11.7202C53.6186 16.24 50.9828 21.2846 47.3938 25.1587C52.1872 22.9425 57.7993 21.9945 62.2712 22.8582L67.3482 23.8388L63.8172 27.6162ZM28.0328 40.9501C31.5788 44.496 37.3281 44.496 40.874 40.9501C44.4199 37.4042 44.4199 31.6549 40.874 28.1089C37.3281 24.5629 31.5788 24.5629 28.0328 28.1089C24.4869 31.6549 24.4869 37.4042 28.0328 40.9501Z" fill="#5F96F7"/>
</svg>
