<svg width="69" height="69" viewBox="0 0 69 69" fill="none" xmlns="http://www.w3.org/2000/svg">
<g clip-path="url(#clip0_9286_2462)">
<mask id="mask0_9286_2462" style="mask-type:luminance" maskUnits="userSpaceOnUse" x="0" y="0" width="69" height="69">
<path d="M69 0H0V69H69V0Z" fill="white"/>
</mask>
<g mask="url(#mask0_9286_2462)">
<path d="M34.5 0L35.2035 20.1808C35.3618 24.7304 40.7987 26.9824 44.1279 23.8775L58.8953 10.1048L45.1225 24.8721C42.0175 28.2013 44.2697 33.6382 48.8192 33.7967L69 34.5L48.8192 35.2035C44.2697 35.3618 42.0175 40.7987 45.1225 44.1279L58.8953 58.8953L44.1279 45.1225C40.7987 42.0175 35.3618 44.2697 35.2035 48.8192L34.5 69L33.7967 48.8192C33.6382 44.2697 28.2013 42.0175 24.8721 45.1225L10.1048 58.8953L23.8775 44.1279C26.9824 40.7987 24.7304 35.3618 20.1808 35.2035L0 34.5L20.1808 33.7967C24.7304 33.6382 26.9824 28.2013 23.8775 24.8721L10.1048 10.1048L24.8721 23.8775C28.2013 26.9824 33.6382 24.7304 33.7967 20.1808L34.5 0Z" fill="#E86AE1"/>
</g>
</g>
<defs>
<clipPath id="clip0_9286_2462">
<rect width="69" height="69" fill="white"/>
</clipPath>
</defs>
</svg>
