<svg width="69" height="69" viewBox="0 0 69 69" fill="none" xmlns="http://www.w3.org/2000/svg">
<g clip-path="url(#clip0_9286_2455)">
<mask id="mask0_9286_2455" style="mask-type:luminance" maskUnits="userSpaceOnUse" x="0" y="0" width="69" height="69">
<path d="M69 0H0V69H69V0Z" fill="white"/>
</mask>
<g mask="url(#mask0_9286_2455)">
<path fill-rule="evenodd" clip-rule="evenodd" d="M37.95 0C39.8554 0 41.4 1.54462 41.4 3.45V9.51289C41.4 12.5865 45.116 14.1258 47.2895 11.9524L51.5765 7.66528C52.924 6.31799 55.1082 6.31799 56.4558 7.66528L61.3348 12.5443C62.682 13.8916 62.682 16.0761 61.3348 17.4234L57.0475 21.7105C54.8743 23.8839 56.4134 27.6 59.487 27.6H65.55C67.4554 27.6 69 29.1446 69 31.05V37.95C69 39.8554 67.4554 41.4 65.55 41.4H59.487C56.4134 41.4 54.8743 45.116 57.0475 47.2895L61.3348 51.5765C62.682 52.924 62.682 55.1082 61.3348 56.4558L56.4558 61.3348C55.1082 62.682 52.924 62.682 51.5765 61.3348L47.2895 57.0475C45.116 54.8743 41.4 56.4134 41.4 59.487V65.55C41.4 67.4554 39.8554 69 37.95 69H31.05C29.1446 69 27.6 67.4554 27.6 65.55V59.487C27.6 56.4134 23.8839 54.8743 21.7105 57.0475L17.4234 61.3348C16.0761 62.682 13.8916 62.682 12.5443 61.3348L7.66531 56.4558C6.31799 55.1082 6.31799 52.924 7.66531 51.5765L11.9524 47.2895C14.1258 45.116 12.5865 41.4 9.51289 41.4H3.45C1.54462 41.4 0 39.8554 0 37.95V31.05C0 29.1446 1.54462 27.6 3.45 27.6H9.51289C12.5865 27.6 14.1258 23.8839 11.9524 21.7105L7.66531 17.4234C6.31799 16.076 6.31799 13.8916 7.66531 12.5443L12.5443 7.66528C13.8916 6.31799 16.0761 6.31799 17.4234 7.66528L21.7105 11.9524C23.8839 14.1258 27.6 12.5865 27.6 9.51289V3.45C27.6 1.54462 29.1446 0 31.05 0H37.95ZM34.5 51.75C44.0268 51.75 51.75 44.0268 51.75 34.5C51.75 24.9731 44.0268 17.25 34.5 17.25C24.9731 17.25 17.25 24.9731 17.25 34.5C17.25 44.0268 24.9731 51.75 34.5 51.75Z" fill="#E86AE1"/>
</g>
</g>
<defs>
<clipPath id="clip0_9286_2455">
<rect width="69" height="69" fill="white"/>
</clipPath>
</defs>
</svg>
