<svg width="69" height="69" viewBox="0 0 69 69" fill="none" xmlns="http://www.w3.org/2000/svg">
<g clip-path="url(#clip0_9286_2504)">
<mask id="mask0_9286_2504" style="mask-type:luminance" maskUnits="userSpaceOnUse" x="0" y="0" width="69" height="69">
<path d="M69 0H0V69H69V0Z" fill="white"/>
</mask>
<g mask="url(#mask0_9286_2504)">
<path fill-rule="evenodd" clip-rule="evenodd" d="M28.2966 45.1205C9.71196 76.9598 59.3134 76.9598 40.7035 45.1205C69.0421 76.9598 76.9605 69.0556 45.1188 40.7052C76.9605 59.2903 76.9605 9.68682 45.1188 28.2977C76.9605 -0.0529139 69.0528 -7.96073 40.7035 23.8822C59.2879 -7.96073 9.68643 -7.96073 28.2966 23.8822C-0.0529008 -7.96073 -7.96042 -0.0529139 23.8813 28.2977C-7.96042 9.71234 -7.96042 59.3159 23.8813 40.7052C-7.96042 69.0556 -0.0529008 76.9598 28.2966 45.1205ZM34.5 43.125C39.2634 43.125 43.125 39.2634 43.125 34.5C43.125 29.7366 39.2634 25.875 34.5 25.875C29.7366 25.875 25.875 29.7366 25.875 34.5C25.875 39.2634 29.7366 43.125 34.5 43.125Z" fill="#FE4342"/>
</g>
</g>
<defs>
<clipPath id="clip0_9286_2504">
<rect width="69" height="69" fill="white"/>
</clipPath>
</defs>
</svg>
