<svg width="69" height="69" viewBox="0 0 69 69" fill="none" xmlns="http://www.w3.org/2000/svg">
<g clip-path="url(#clip0_9286_2445)">
<mask id="mask0_9286_2445" style="mask-type:luminance" maskUnits="userSpaceOnUse" x="0" y="0" width="69" height="69">
<path d="M69 0H0V69H69V0Z" fill="white"/>
</mask>
<g mask="url(#mask0_9286_2445)">
<path fill-rule="evenodd" clip-rule="evenodd" d="M35.5843 0C36.3464 0 36.9643 0.617847 36.9643 1.38V14.7228C36.9643 16.2396 39.0557 16.6461 39.6239 15.2398L44.622 2.86852C44.9076 2.16187 45.7118 1.82046 46.4187 2.10597L48.4294 2.91833C49.1359 3.20384 49.4775 4.00814 49.1918 4.7148L43.8633 17.9037C43.2999 19.2976 45.0553 20.4595 46.1186 19.3965L56.1767 9.33808C56.7159 8.79916 57.5895 8.79916 58.1284 9.33808L59.6619 10.8715C60.2008 11.4104 60.2008 12.2842 59.6619 12.8231L50.6294 21.8555C49.5513 22.9338 50.7605 24.7064 52.1578 24.0959L63.8629 18.9818C64.5616 18.6766 65.3751 18.9954 65.6801 19.6938L66.5484 21.681C66.8534 22.3794 66.5346 23.1929 65.8363 23.4981L52.3482 29.3911C50.9779 29.9898 51.4053 32.0357 52.9006 32.0357H67.62C68.3821 32.0357 69 32.6536 69 33.4157V35.5843C69 36.3464 68.3821 36.9643 67.62 36.9643H52.9009C51.4053 36.9643 50.9782 39.0102 52.3482 39.6088L65.8363 45.502C66.5346 45.807 66.8534 46.6205 66.5484 47.3188L65.6801 49.306C65.3751 50.0046 64.5616 50.3234 63.8629 50.0181L52.1578 44.9042C50.7605 44.2935 49.5513 46.0661 50.6294 47.1446L59.6619 56.1767C60.2008 56.7159 60.2008 57.5895 59.6619 58.1284L58.1284 59.6619C57.5895 60.2008 56.7159 60.2008 56.1767 59.6619L46.1186 49.6034C45.0553 48.5405 43.2999 49.7024 43.8633 51.0962L49.1918 64.2852C49.4775 64.9918 49.1359 65.796 48.4294 66.0816L46.4187 66.8941C45.7118 67.1794 44.9076 66.8382 44.622 66.1313L39.6239 53.7603C39.0557 52.3537 36.9643 52.7605 36.9643 54.2771V67.62C36.9643 68.3821 36.3464 69 35.5843 69H33.4157C32.6536 69 32.0357 68.3821 32.0357 67.62V54.2771C32.0357 52.7605 29.9444 52.3537 29.3762 53.7603L24.3779 66.1313C24.0924 66.8382 23.2881 67.1794 22.5814 66.8941L20.5707 66.0816C19.8641 65.796 19.5227 64.9918 19.8082 64.2852L25.1369 51.0962C25.7 49.7024 23.9446 48.5405 22.8815 49.6034L12.8231 59.6619C12.2842 60.2008 11.4104 60.2008 10.8715 59.6619L9.33811 58.1284C8.79919 57.5895 8.79919 56.7159 9.33811 56.1767L18.3705 47.1442C19.4488 46.0661 18.2396 44.2935 16.8422 44.9042L5.13688 50.0181C4.43849 50.3234 3.62495 50.0046 3.31981 49.306L2.45159 47.3188C2.14646 46.6205 2.46526 45.807 3.16366 45.502L16.6517 39.6088C18.0219 39.0102 17.5945 36.9643 16.0991 36.9643H1.38C0.617847 36.9643 0 36.3464 0 35.5843V33.4157C0 32.6536 0.617847 32.0357 1.38 32.0357H16.0992C17.5945 32.0357 18.022 29.9898 16.6517 29.3911L3.16365 23.4981C2.46525 23.1929 2.14645 22.3794 2.45158 21.681L3.3198 19.6938C3.62495 18.9954 4.43846 18.6766 5.13688 18.9818L16.8422 24.0959C18.2396 24.7065 19.4488 22.9338 18.3705 21.8555L9.33811 12.8231C8.79919 12.2842 8.79919 11.4104 9.33811 10.8715L10.8715 9.33811C11.4104 8.79919 12.2842 8.79919 12.8231 9.33811L22.8815 19.3965C23.9446 20.4595 25.7 19.2976 25.1369 17.9037L19.8082 4.7148C19.5227 4.00814 19.8641 3.20384 20.5707 2.91833L22.5814 2.10597C23.2881 1.82046 24.0924 2.16187 24.3779 2.86852L29.3762 15.2398C29.9444 16.6461 32.0357 16.2396 32.0357 14.7228V1.38C32.0357 0.617847 32.6536 0 33.4157 0H35.5843ZM34.5 49.2857C42.6658 49.2857 49.2857 42.6658 49.2857 34.5C49.2857 26.3341 42.6658 19.7143 34.5 19.7143C26.3341 19.7143 19.7143 26.3341 19.7143 34.5C19.7143 42.6658 26.3341 49.2857 34.5 49.2857Z" fill="#5F96F7"/>
</g>
</g>
<defs>
<clipPath id="clip0_9286_2445">
<rect width="69" height="69" fill="white"/>
</clipPath>
</defs>
</svg>
