<svg width="69" height="69" viewBox="0 0 69 69" fill="none" xmlns="http://www.w3.org/2000/svg">
<path d="M50.4291 34.5C55.6096 33.4754 60.707 30.9435 63.8172 27.6162L67.3482 23.8388L62.2712 22.8582C57.7993 21.9945 52.1872 22.9425 47.3938 25.1587C50.9828 21.2846 53.6186 16.24 54.1789 11.7202L54.8154 6.58884L50.1317 8.7797C46.0062 10.7095 42.0232 14.775 39.4474 19.3855C40.0739 14.1418 39.2414 8.51139 37.0379 4.52526L34.5367 0L32.0352 4.52526C29.8318 8.51139 28.9992 14.1418 29.6257 19.3855C27.0502 14.775 23.0671 10.7093 18.9416 8.7797L14.2579 6.58884L14.8942 11.7202C15.4546 16.24 18.0904 21.2846 21.6794 25.1587C16.886 22.9425 11.2737 21.9946 6.80188 22.8582L1.7251 23.8388L5.25597 27.6162C8.36611 30.9435 13.4634 33.4753 18.6442 34.5C13.4636 35.5247 8.36611 38.0563 5.25597 41.3838L1.7251 45.1612L6.80188 46.1417C11.2737 47.0056 16.8858 46.0575 21.6794 43.8412C18.0904 47.7156 15.4546 52.7598 14.8942 57.2797L14.2579 62.4108L18.9414 60.2204C23.067 58.2905 27.05 54.225 29.6255 49.6144C28.999 54.8581 29.8317 60.4885 32.035 64.4746L34.5363 69L37.0376 64.4746C39.2411 60.4885 40.0736 54.8581 39.4474 49.6144C42.0228 54.225 46.0058 58.2909 50.1314 60.2204L54.8147 62.4108L54.1785 57.2797C53.6179 52.7598 50.9821 47.7156 47.3934 43.8412C52.1869 46.0575 57.799 47.0052 62.2709 46.1417L67.3475 45.1612L63.8168 41.3838C60.707 38.0566 55.6096 35.5247 50.4291 34.5Z" fill="#FE4342"/>
</svg>
