<svg width="69" height="69" viewBox="0 0 69 69" fill="none" xmlns="http://www.w3.org/2000/svg">
<g clip-path="url(#clip0_9286_2469)">
<mask id="mask0_9286_2469" style="mask-type:luminance" maskUnits="userSpaceOnUse" x="0" y="0" width="69" height="69">
<path d="M69 0H0V69H69V0Z" fill="white"/>
</mask>
<g mask="url(#mask0_9286_2469)">
<path d="M33.7451 0.637001C33.8914 -0.212338 35.1086 -0.212332 35.2549 0.637008L36.8677 9.99827C36.9964 10.7446 38.0118 10.8731 38.3216 10.1823L42.207 1.51697C42.5595 0.730769 43.7384 1.03405 43.6694 1.89317L42.908 11.3622C42.8473 12.1171 43.7988 12.4946 44.2704 11.9026L50.1847 4.47772C50.7212 3.80407 51.788 4.39161 51.5078 5.2065L48.4201 14.1883C48.1737 14.9044 49.0017 15.5071 49.6055 15.0512L57.1768 9.33328C57.8637 8.81451 58.7511 9.64934 58.2774 10.3688L53.0572 18.299C52.6411 18.9313 53.2935 19.7214 53.9915 19.4302L62.7441 15.7785C63.5383 15.4472 64.1907 16.4769 63.5531 17.0558L56.5286 23.4361C55.9687 23.9448 56.4044 24.8726 57.1527 24.7645L66.5367 23.4085C67.3882 23.2855 67.7646 24.4454 67.0035 24.8472L58.6158 29.2768C57.9472 29.6299 58.1391 30.6372 58.8905 30.7189L68.3166 31.7438C69.1718 31.8368 69.2481 33.0539 68.4114 33.2535L59.1879 35.4539C58.4523 35.6295 58.3881 36.6528 59.0957 36.9191L67.9712 40.2605C68.7764 40.5637 68.5484 41.7616 67.6883 41.7467L58.2084 41.5797C57.4525 41.5663 57.1365 42.5416 57.7558 42.976L65.5231 48.4239C66.2276 48.9182 65.7094 50.0216 64.88 49.7925L55.7396 47.2688C55.0106 47.0677 54.4624 47.9333 54.9544 48.5084L61.1254 55.7206C61.6853 56.3751 60.9094 57.3145 60.1628 56.886L51.936 52.164C51.2798 51.7876 50.5339 52.4897 50.8678 53.169L55.0548 61.6922C55.4346 62.4657 54.45 63.1823 53.8335 62.5816L47.0366 55.958C46.495 55.4298 45.598 55.9238 45.7529 56.6652L47.6928 65.9637C47.8688 66.8075 46.7368 67.2564 46.289 66.5208L41.35 58.4116C40.956 57.7651 39.9648 58.02 39.9306 58.7766L39.5015 68.2669C39.4628 69.1276 38.255 69.2805 38.0038 68.4563L35.2328 59.3714C35.0116 58.6472 33.9883 58.6472 33.7674 59.3714L30.9963 68.4563C30.7449 69.2805 29.5373 69.1276 29.4984 68.2669L29.0694 58.7766C29.0352 58.02 28.0439 57.7651 27.6501 58.4116L22.7111 66.5208C22.263 67.2564 21.1313 66.8075 21.3073 65.9637L23.2473 56.6652C23.402 55.9238 22.5051 55.4298 21.9633 55.958L15.1667 62.5816C14.5501 63.1823 13.5653 62.4657 13.9452 61.6922L18.1323 53.169C18.4661 52.4897 17.7201 51.7876 17.0641 52.164L8.83707 56.886C8.09063 57.3145 7.31476 56.3751 7.87466 55.7206L14.0457 48.5084C14.5377 47.9333 13.9893 47.0677 13.2606 47.2688L4.11992 49.7925C3.29059 50.0216 2.77234 48.9182 3.47705 48.4239L11.2444 42.976C11.8637 42.5416 11.5474 41.5663 10.7916 41.5797L1.31167 41.7467C0.451563 41.7616 0.223477 40.5637 1.02875 40.2605L9.90426 36.9191C10.6119 36.6528 10.5476 35.6295 9.81225 35.4539L0.588742 33.2535C-0.248103 33.0539 -0.171668 31.8368 0.683552 31.7438L10.1096 30.7189C10.8611 30.6372 11.0529 29.6299 10.3842 29.2768L1.9966 24.8472C1.2356 24.4453 1.61174 23.2855 2.46317 23.4085L11.8475 24.7645C12.5956 24.8726 13.0314 23.9448 12.4713 23.4361L5.44676 17.0558C4.80944 16.4769 5.46163 15.4472 6.25578 15.7785L15.0087 19.4302C15.7065 19.7214 16.3589 18.9313 15.9427 18.299L10.7225 10.3688C10.2488 9.64934 11.1361 8.81451 11.8231 9.33328L19.3946 15.0512C19.9983 15.5071 20.8262 14.9044 20.58 14.1883L17.4922 5.2065C17.212 4.39161 18.2787 3.80407 18.8153 4.47772L24.7296 11.9026C25.2012 12.4946 26.1527 12.1171 26.092 11.3622L25.3306 1.89316C25.2615 1.03405 26.4404 0.730765 26.7929 1.51696L30.6786 10.1823C30.9884 10.8731 32.0038 10.7446 32.1323 9.99827L33.7451 0.637001Z" fill="#FE4342"/>
</g>
</g>
<defs>
<clipPath id="clip0_9286_2469">
<rect width="69" height="69" fill="white"/>
</clipPath>
</defs>
</svg>
